<svg width="33" height="33" viewBox="0 0 33 33" fill="none" xmlns="http://www.w3.org/2000/svg">
<g clip-path="url(#clip0_64_308)">
<path d="M33 16.5C33 25.6122 25.6122 33 16.5 33C7.38782 33 0 25.6122 0 16.5C0 7.38782 7.38782 0 16.5 0C25.6141 0 33 7.38782 33 16.5Z" fill="white"/>
<path d="M8.1404 17.0544L8.21157 16.9425L12.5039 10.2278C12.5666 10.1294 12.7141 10.1396 12.7616 10.2464C13.4786 11.8535 14.0974 13.8522 13.8075 15.0964C13.6838 15.6084 13.3447 16.3018 12.9633 16.9425C12.9141 17.0358 12.8599 17.1273 12.8022 17.2155C12.7751 17.2562 12.7293 17.2799 12.6802 17.2799H8.26584C8.14715 17.2799 8.07767 17.1511 8.1404 17.0544Z" fill="#2081E2"/>
<path d="M27.2727 18.3021V19.365C27.2727 19.426 27.2354 19.4803 27.1811 19.504C26.8489 19.6464 25.7114 20.1685 25.2384 20.8263C24.0314 22.5062 23.1092 24.9084 21.0478 24.9084H12.4479C9.39993 24.9084 6.92999 22.43 6.92999 19.3718V19.2734C6.92999 19.1921 6.9961 19.126 7.07747 19.126H11.8716C11.9665 19.126 12.036 19.2141 12.0275 19.3074C11.9936 19.6193 12.0513 19.938 12.1987 20.2279C12.4835 20.8059 13.0735 21.167 13.7109 21.167H16.0842V19.3141H13.738C13.6176 19.3141 13.5465 19.1751 13.6159 19.0768C13.6414 19.0378 13.6702 18.9971 13.7007 18.9514C13.9228 18.6361 14.2398 18.1461 14.5551 17.5884C14.7704 17.2121 14.9789 16.8103 15.1467 16.4068C15.1807 16.3339 15.2078 16.2594 15.2349 16.1864C15.2806 16.0576 15.3281 15.9373 15.362 15.8169C15.3959 15.7152 15.4231 15.6084 15.4502 15.5084C15.5299 15.1659 15.5637 14.8032 15.5637 14.4268C15.5637 14.2793 15.557 14.1251 15.5434 13.9776C15.5367 13.8165 15.5163 13.6555 15.4959 13.4944C15.4824 13.352 15.457 13.2113 15.4298 13.0639C15.3959 12.8486 15.3485 12.635 15.2942 12.4197L15.2756 12.3383C15.2349 12.1908 15.201 12.0501 15.1535 11.9026C15.0196 11.4398 14.8653 10.9889 14.7026 10.5668C14.6433 10.399 14.5754 10.2379 14.5076 10.0769C14.4076 9.83445 14.3059 9.61409 14.2127 9.40556C14.1652 9.31063 14.1245 9.22417 14.0838 9.13603C14.038 9.036 13.9906 8.93601 13.9431 8.84104C13.9092 8.76815 13.8702 8.70035 13.8431 8.63256L13.5532 8.09686C13.5125 8.02396 13.5803 7.9375 13.66 7.95954L15.4739 8.45117H15.479C15.4824 8.45117 15.4841 8.45285 15.4858 8.45285L15.7248 8.51896L15.9876 8.59354L16.0842 8.62068V7.54253C16.0842 7.02208 16.5012 6.59998 17.0166 6.59998C17.2742 6.59998 17.5082 6.70506 17.676 6.8763C17.8438 7.04753 17.9489 7.28146 17.9489 7.54253V9.14281L18.1422 9.19704C18.1574 9.20214 18.1727 9.20892 18.1863 9.21908C18.2337 9.25468 18.3015 9.30726 18.388 9.37165C18.4558 9.42591 18.5287 9.49202 18.6169 9.55982C18.7915 9.70055 19 9.88194 19.2288 10.0904C19.2898 10.143 19.3492 10.1972 19.4034 10.2515C19.6984 10.5261 20.029 10.8482 20.3443 11.2042C20.4324 11.3042 20.5189 11.4059 20.607 11.5127C20.6952 11.6212 20.7884 11.728 20.8698 11.8348C20.9766 11.9772 21.0919 12.1247 21.1919 12.279C21.2393 12.3519 21.2936 12.4265 21.3394 12.4993C21.4682 12.6943 21.5818 12.896 21.6903 13.0977C21.7361 13.191 21.7835 13.2927 21.8242 13.3927C21.9446 13.6623 22.0395 13.9369 22.1005 14.2115C22.1192 14.2709 22.1327 14.3353 22.1395 14.3929V14.4065C22.1599 14.4879 22.1666 14.5743 22.1734 14.6625C22.2006 14.9438 22.187 15.2253 22.1259 15.5084C22.1005 15.6287 22.0666 15.7423 22.026 15.8627C21.9853 15.978 21.9446 16.0983 21.892 16.2119C21.7903 16.4475 21.67 16.6832 21.5275 16.9035C21.4818 16.9849 21.4275 17.0714 21.3733 17.1527C21.314 17.2392 21.2529 17.3206 21.1987 17.4003C21.1241 17.502 21.0444 17.6087 20.963 17.7037C20.8901 17.8037 20.8155 17.9037 20.7342 17.9919C20.6206 18.1258 20.5121 18.2529 20.3985 18.375C20.3307 18.4547 20.2578 18.536 20.1832 18.6089C20.1103 18.6903 20.0358 18.7632 19.9679 18.831C19.8544 18.9446 19.7594 19.0327 19.6798 19.1056L19.4933 19.2769C19.4661 19.3006 19.4305 19.3141 19.3932 19.3141H17.9489V21.167H19.7662C20.1731 21.167 20.5596 21.0229 20.8715 20.7585C20.9783 20.6652 21.4445 20.2618 21.9954 19.6532C22.0141 19.6328 22.0378 19.6176 22.0649 19.6108L27.0845 18.1597C27.1777 18.1326 27.2727 18.2038 27.2727 18.3021Z" fill="#2081E2"/>
</g>
<defs>
<clipPath id="clip0_64_308">
<rect width="33" height="33" fill="white"/>
</clipPath>
</defs>
</svg>
