<svg width="181" height="172" viewBox="0 0 181 172" fill="none" xmlns="http://www.w3.org/2000/svg">
<path fillRule="evenodd" clipRule="evenodd" d="M90.609 0.457031C49.4277 0.457031 16.0426 33.8368 16.0426 75.0234C16.0426 95.6113 24.3889 114.254 37.8835 127.749C51.3781 141.244 70.0156 149.59 90.609 149.59C139.635 149.59 175.445 102.955 162.582 55.4816C152.825 21.2792 122.948 0.457031 90.609 0.457031ZM151.566 88.0332C149.349 97.3601 144.767 108.719 135.364 117.708C126.004 126.654 111.938 133.186 90.7942 132.897C90.7452 132.903 90.6961 132.903 90.6471 132.903V132.892C88.8765 132.581 63.9793 134.913 45.9683 117.806C36.576 108.888 31.967 97.5889 29.717 88.262C26.835 76.32 30.5832 63.7788 39.5996 55.4053C44.3775 50.9815 50.6426 46.2963 58.4169 42.7333C66.202 39.1703 75.4854 36.746 86.2778 36.8495C89.1707 36.8767 92.0581 36.8767 94.951 36.8495C113.093 36.6752 129.083 43.6867 141.793 55.5687C150.64 63.8387 154.372 76.2383 151.566 88.0332ZM138.431 59.1807C126.228 47.7781 111.339 41.6165 94.9837 41.7745C92.069 41.8017 89.1489 41.8017 86.2342 41.7745C69.6125 41.6165 54.8703 47.9579 42.9555 59.0227C35.2194 66.2086 32.0541 76.9684 34.5003 87.1125C40.6619 112.663 58.8582 128.479 90.5654 127.978V127.967C90.658 127.967 90.7561 127.967 90.8432 127.978C121.641 128.397 140.469 113.312 146.75 86.8946C147.96 81.8606 147.764 76.6905 146.32 71.8963C144.882 67.113 142.201 62.7056 138.431 59.1807ZM131.687 93.0835C127.928 101.108 122.109 107.766 114.019 111.383C112.771 111.939 111.317 111.383 110.761 110.141C110.205 108.899 110.766 107.444 112.003 106.889C119.031 103.751 124.01 97.8668 127.225 91.0023C129.753 85.6088 129.235 79.1639 125.743 74.2171C124.958 73.1057 125.225 71.564 126.342 70.7795C127.454 69.995 128.995 70.2619 129.78 71.3787C134.166 77.5894 135.075 85.8431 131.687 93.0835ZM4.85242 57.263C2.4771 57.263 0.445007 59.4259 0.445007 62.2643V87.7771C0.445007 90.6264 2.488 92.7784 4.85242 92.7784H13.0952C10.442 81.147 10.442 68.9054 13.0952 57.263H4.85242ZM29.8695 126.322C29.7061 132.805 30.7248 141.761 35.944 149.928C43.1953 161.265 58.6675 171.18 90.609 171.18C122.55 171.18 138.023 161.265 145.274 149.928C150.493 141.767 151.512 132.805 151.348 126.327C119.576 163.907 61.6748 163.945 29.8695 126.322ZM176.366 57.263H168.123C170.776 68.8945 170.781 81.1415 168.123 92.7893H176.366V92.7784C178.741 92.7784 180.773 90.6155 180.773 87.7771V62.2643C180.773 59.4204 178.735 57.263 176.366 57.263Z" fill="url(#paint0_linear_62_30)"/>
<defs>
<linearGradient id="paint0_linear_62_30" x1="31.5556" y1="28.6224" x2="149.653" y2="146.72" gradientUnits="userSpaceOnUse">
<stop stop-color="#FC00FF"/>
<stop offset="1" stop-color="#00DBDE"/>
</linearGradient>
</defs>
</svg>
