<svg width="35" height="35" viewBox="0 0 35 35" fill="none" xmlns="http://www.w3.org/2000/svg">
<g clip-path="url(#clip0_64_316)">
<path d="M13.3345 16.4131V16.4018C12.0263 16.4018 10.9706 17.4832 10.9706 18.8124C10.9706 20.1416 12.0263 21.2231 13.3345 21.2231C14.6427 21.2231 15.6984 20.1417 15.6984 18.8237C15.6984 17.4944 14.6312 16.4131 13.3345 16.4131Z" fill="white"/>
<path d="M17.5 0.410156C8.06155 0.410156 0.410156 8.06155 0.410156 17.5C0.410156 26.9384 8.06155 34.5898 17.5 34.5898C26.9384 34.5898 34.5898 26.9384 34.5898 17.5C34.5898 8.06155 26.9384 0.410156 17.5 0.410156ZM23.8228 26.5174C23.8228 26.5174 22.9619 25.5596 22.3425 24.715C25.3261 23.8701 26.4509 22.1805 26.4509 22.1805C23.3488 24.0985 20.4517 24.8364 17.5 24.7405C14.5483 24.8362 11.6512 24.0985 8.54943 22.1805C8.54943 22.1805 9.67395 23.8701 12.6578 24.715C12.0382 25.5598 11.1776 26.5174 11.1776 26.5174C6.05931 26.4047 4.07422 23.2732 3.95937 23.4083C3.95937 16.4356 7.34453 10.7581 7.34453 10.7581C10.3739 8.5843 13.1968 8.49393 13.7361 8.48265L14.0805 8.80934C10.2133 9.89071 8.34285 11.5804 8.34285 11.5804C11.6619 9.97732 14.7902 9.41343 17.5 9.37966C20.2099 9.41384 23.3379 9.97732 26.6571 11.5804C26.6571 11.5804 24.7867 9.89071 20.9196 8.80934L21.2639 8.48265C21.8032 8.49393 24.6261 8.58402 27.6555 10.7581C27.6555 10.7581 31.0406 16.4355 31.0406 23.4083C30.9258 23.2732 28.9407 26.4047 23.8228 26.5174Z" fill="white"/>
<path d="M21.6654 16.4017V16.413C20.3687 16.413 19.3015 17.4944 19.3015 18.8236C19.3015 20.1415 20.3573 21.223 21.6654 21.223C22.9736 21.223 24.0293 20.1415 24.0293 18.8123C24.0293 17.483 22.9736 16.4017 21.6654 16.4017Z" fill="white"/>
</g>
<defs>
<clipPath id="clip0_64_316">
<rect width="35" height="35" fill="white"/>
</clipPath>
</defs>
</svg>
